.
 
http://www.scenetime.com    -   SceneTime [ We been having it ] !!!


How come you press harder on a remote control when you know the battery is dead? so you better seed to get speed ;)

        Seed back for speed


...................................NFO:.................................................   
                                                                                  :::   .:         ::     .::        ::    .::.        .:.     .                       
              :::::. :::::                              ::::::  :::::.                              .:::::::.                                   .: 
   :::::..:::::                              :::::: .::::.                              :::::::::::                                  .::::. :::::.    
   :::::..:::::         ::::::::::::.        ::::::.::::.         ::::::::::::.        .::::: ::::::         ::::. .:::  ::::.       .:::::.:::::.    
   :::::..:::::         ::::::..:::::        :::::::::::          ::::::..:::::.       .::::: ::::::         .:::. ::::  ::::        .:::::::::::.    
   :::::. :::::         :::::. .:::::        ::::::::::.          ::::::  ::::::       .::::: ::::::         .:::. ::::..::::        .:::::::::::.    
   :::::..:::::         :::::. .:::::        ::::::::::           ::::::  :::::.       .::::: ::::::         .::::.::::.:::::        .:::::::::::.    
   :::::..:::::         :::::. .:::::        ::::::::::.          ::::::  :::::.       .::::: ::::::          ::::::::::::::.        .:::::::::::.    
   :::::..:::::         :::::. .:::::        :::::::::::.         ::::::  :::::.       .::::: ::::::          .:::::::::::::         .:::::::::::.    
   .::::..:::::         :::::. .:::::        :::::: :::::         ::::::  :::::.       .::::: :::::.          .:::::. ::::::         .:::::.:::::.    
    ::::::::::.         :::::. .:::::        :::::: .::::.        ::::::  :::::.        :::::::::::           .:::::. ::::::         .:::::  ::::.    
     .::::::.           :::::. .:::::        ::::::  :::::.       ::::::  :::::.         ..::::::.             :::::  .::::.         .:::::  ::::.                                  
   
    
                     NOTES                                      NOTES                                 

                     NOTES                                      NOTES          
                                   
                                                                

  Encoded By .......:UnKnOwN                                                     Release Date ......... 2011
  Runtime ..........:2:26                                                        Source       ......... ELEK/Spank My Seedbox
  IMDb URL .........:http://www.imdb.com/title/tt1399103/                        File Type    ......... Single AVI
  Language .........:English                                                     PS3 Compatible ....... Get a XBOX 
  File Size ........:1.9gb                                                       Genre        ......... Action/Fantasy


Video
ID                               : 0
Format                           : MPEG-4 Visual
Format profile                   : Advanced Simple@L5
Format settings, BVOP            : Yes
Format settings, QPel            : No
Format settings, GMC             : No warppoints
Format settings, Matrix          : Custom
Codec ID                         : XVID
Codec ID/Hint                    : XviD
Duration                         : 2h 26mn
Bit rate                         : 1 734 Kbps
Width                            : 720 pixels
Height                           : 304 pixels
Display aspect ratio             : 2.35:1
Frame rate                       : 25.000 fps
Color space                      : YUV
Chroma subsampling               : 4:2:0
Bit depth                        : 8 bits
Scan type                        : Progressive
Bits/(Pixel*Frame)               : 0.317
Stream size                      : 1.76 GiB (93%)
Writing library                  : XviD 1.2.1 (UTC 2008-12-04)

Audio
ID                               : 1
Format                           : MPEG Audio
Format version                   : Version 1
Format profile                   : Layer 3
Codec ID                         : 55
Codec ID/Hint                    : MP3
Duration                         : 2h 26mn
Bit rate mode                    : Constant
Bit rate                         : 128 Kbps
Channel(s)                       : 2 channels
Sampling rate                    : 44.1 KHz
Video delay                      : 11ms
Stream size                      : 133 MiB (7%)
Alignment                        : Split accross interleaves
Interleave, duration             : 500 ms (12.50 video frames)
Interleave, preload duration     : 500 ms
                

                                                                    SYSPNOSIS
                             The Autobots learn of a Cybertronian spacecraft hidden on the Moon, and race against the Decepticons 
                                                            to reach it and to learn its secrets.  


                                                                   RELEASE INFO
                              Lots of work done here adjusted colors denoised as much as possible for bright scenes made about 300 cuts
                              for sync bla bla.On to READ NFO past the Russian TS was missing 14 minutes from beginning and a few minutes
                              about an 1:13 in so i muxed the first cam with it and about 2 other spots so you will see the video changing
                              to the old cam nothing major.Subs are hardcoded for all the foreign parts and the last line of audio was missing at the end
                              so i hardcoded the sub for that 1 line.2 samples included enjoy or bitch.
                                         


                             
                                               
                                                     
                                                                 LOOKING FOR
                                                                                                                
                                                        Your Great Grandmother's Daughters Daughters Daughter
                                             If you over 18 and under 25 and not effected severily by gravity holla(:
                             




                             
                                            GREETZ & RESPECT                   
                              
                                                            NOBODY YET WILL LET YOU KNOW

                                                            MORE GOODIES COMING REAL SOON